<?xml version="1.0" encoding="UTF-8"?>
<!DOCTYPE svg PUBLIC "-//W3C//DTD SVG 1.1//EN" "http://www.w3.org/Graphics/SVG/1.1/DTD/svg11.dtd">
<svg xmlns="http://www.w3.org/2000/svg" xmlns:xlink="http://www.w3.org/1999/xlink" version="1.1" width="214px" height="201px" viewBox="-0.5 -0.5 214 201"><defs/><g><path d="M 9.16 22.77 L 99.84 83.23" fill="none" stroke="#9c9c9c" stroke-width="2" stroke-miterlimit="10" pointer-events="stroke"/><path d="M 106.5 87.67 L 98.36 85.45 L 101.32 81.01 Z" fill="#9c9c9c" stroke="#9c9c9c" stroke-width="2" stroke-miterlimit="10" pointer-events="all"/><path d="M 10 20 L 94.76 20" fill="none" stroke="#9c9c9c" stroke-width="2" stroke-miterlimit="10" pointer-events="stroke"/><path d="M 102.76 20 L 94.76 22.67 L 94.76 17.33 Z" fill="#9c9c9c" stroke="#9c9c9c" stroke-width="2" stroke-miterlimit="10" pointer-events="all"/><path d="M 8 24 L 106.86 155.81" fill="none" stroke="#9c9c9c" stroke-width="2" stroke-miterlimit="10" pointer-events="stroke"/><path d="M 111.66 162.21 L 104.73 157.41 L 108.99 154.21 Z" fill="#9c9c9c" stroke="#9c9c9c" stroke-width="2" stroke-miterlimit="10" pointer-events="all"/><path d="M 9.16 177.23 L 99.84 116.77" fill="none" stroke="#9c9c9c" stroke-width="2" stroke-miterlimit="10" pointer-events="stroke"/><path d="M 106.5 112.33 L 101.32 118.99 L 98.36 114.55 Z" fill="#9c9c9c" stroke="#9c9c9c" stroke-width="2" stroke-miterlimit="10" pointer-events="all"/><path d="M 10 180 L 94.76 180" fill="none" stroke="#9c9c9c" stroke-width="2" stroke-miterlimit="10" pointer-events="stroke"/><path d="M 102.76 180 L 94.76 182.67 L 94.76 177.33 Z" fill="#9c9c9c" stroke="#9c9c9c" stroke-width="2" stroke-miterlimit="10" pointer-events="all"/><path d="M 8 176 L 106.86 44.19" fill="none" stroke="#9c9c9c" stroke-width="2" stroke-miterlimit="10" pointer-events="stroke"/><path d="M 111.66 37.79 L 108.99 45.79 L 104.73 42.59 Z" fill="#9c9c9c" stroke="#9c9c9c" stroke-width="2" stroke-miterlimit="10" pointer-events="all"/><path d="M 10 100 L 94.76 100" fill="none" stroke="#9c9c9c" stroke-width="2" stroke-miterlimit="10" pointer-events="stroke"/><path d="M 102.76 100 L 94.76 102.67 L 94.76 97.33 Z" fill="#9c9c9c" stroke="#9c9c9c" stroke-width="2" stroke-miterlimit="10" pointer-events="all"/><path d="M 9.16 97.23 L 99.84 36.77" fill="none" stroke="#9c9c9c" stroke-width="2" stroke-miterlimit="10" pointer-events="stroke"/><path d="M 106.5 32.33 L 101.32 38.99 L 98.36 34.55 Z" fill="#9c9c9c" stroke="#9c9c9c" stroke-width="2" stroke-miterlimit="10" pointer-events="all"/><path d="M 9.16 102.77 L 99.84 163.23" fill="none" stroke="#9c9c9c" stroke-width="2" stroke-miterlimit="10" pointer-events="stroke"/><path d="M 106.5 167.67 L 98.36 165.45 L 101.32 161.01 Z" fill="#9c9c9c" stroke="#9c9c9c" stroke-width="2" stroke-miterlimit="10" pointer-events="all"/><ellipse cx="5" cy="20" rx="5" ry="5" fill="#9c9c9c" stroke="none" pointer-events="all"/><ellipse cx="5" cy="180" rx="5" ry="5" fill="#9c9c9c" stroke="none" pointer-events="all"/><ellipse cx="5" cy="100" rx="5" ry="5" fill="#9c9c9c" stroke="none" pointer-events="all"/><ellipse cx="125" cy="20" rx="20" ry="20" fill="#ffc500" stroke="#b09500" pointer-events="all"/><ellipse cx="125" cy="100" rx="20" ry="20" fill="#ffc500" stroke="#b09500" pointer-events="all"/><ellipse cx="125" cy="180" rx="20" ry="20" fill="#ffc500" stroke="#b09500" pointer-events="all"/><path d="M 145 100 L 194.76 100" fill="none" stroke="#9c9c9c" stroke-width="2" stroke-miterlimit="10" pointer-events="stroke"/><path d="M 202.76 100 L 194.76 102.67 L 194.76 97.33 Z" fill="#9c9c9c" stroke="#9c9c9c" stroke-width="2" stroke-miterlimit="10" pointer-events="all"/><path d="M 145 20 L 194.76 20" fill="none" stroke="#9c9c9c" stroke-width="2" stroke-miterlimit="10" pointer-events="stroke"/><path d="M 202.76 20 L 194.76 22.67 L 194.76 17.33 Z" fill="#9c9c9c" stroke="#9c9c9c" stroke-width="2" stroke-miterlimit="10" pointer-events="all"/><path d="M 145 180 L 194.76 180" fill="none" stroke="#9c9c9c" stroke-width="2" stroke-miterlimit="10" pointer-events="stroke"/><path d="M 202.76 180 L 194.76 182.67 L 194.76 177.33 Z" fill="#9c9c9c" stroke="#9c9c9c" stroke-width="2" stroke-miterlimit="10" pointer-events="all"/></g></svg>