<?xml version="1.0" encoding="UTF-8"?>
<svg width="286.87pt" height="147.49pt" version="1.1" viewBox="0 0 76.498 39.332" xmlns="http://www.w3.org/2000/svg" xmlns:cc="http://creativecommons.org/ns#" xmlns:dc="http://purl.org/dc/elements/1.1/" xmlns:rdf="http://www.w3.org/1999/02/22-rdf-syntax-ns#">
	<defs>
		<marker id="marker19185" overflow="visible" orient="auto">
			<path transform="matrix(-.4 0 0 -.4 -4 0)" d="m0 0 5-5-17.5 5 17.5 5z" fill="#fff" fill-rule="evenodd" stroke="#fff" stroke-width="1pt"/>
		</marker>
		<marker id="marker18659" overflow="visible" orient="auto">
			<path transform="matrix(-.4 0 0 -.4 -4 0)" d="m0 0 5-5-17.5 5 17.5 5z" fill="#fff" fill-rule="evenodd" stroke="#fff" stroke-width="1pt"/>
		</marker>
		<marker id="marker18145" overflow="visible" orient="auto">
			<path transform="matrix(-.4 0 0 -.4 -4 0)" d="m0 0 5-5-17.5 5 17.5 5z" fill="#fff" fill-rule="evenodd" stroke="#fff" stroke-width="1pt"/>
		</marker>
		<marker id="marker15993" overflow="visible" orient="auto">
			<path transform="matrix(.4 0 0 .4 2.96 .4)" d="m-2.5-1c0 2.76-2.24 5-5 5s-5-2.24-5-5 2.24-5 5-5 5 2.24 5 5z" fill="#fff" fill-rule="evenodd" stroke="#fff" stroke-width="1pt"/>
		</marker>
		<marker id="marker15399" overflow="visible" orient="auto">
			<path transform="matrix(-.4 0 0 -.4 -4 0)" d="m0 0 5-5-17.5 5 17.5 5z" fill="#fff" fill-rule="evenodd" stroke="#fff" stroke-width="1pt"/>
		</marker>
		<marker id="marker12378" overflow="visible" orient="auto">
			<path transform="matrix(.4 0 0 .4 2.96 .4)" d="m-2.5-1c0 2.76-2.24 5-5 5s-5-2.24-5-5 2.24-5 5-5 5 2.24 5 5z" fill="#fff" fill-rule="evenodd" stroke="#fff" stroke-width="1pt"/>
		</marker>
		<marker id="marker12368" overflow="visible" orient="auto">
			<path transform="matrix(.4 0 0 .4 2.96 .4)" d="m-2.5-1c0 2.76-2.24 5-5 5s-5-2.24-5-5 2.24-5 5-5 5 2.24 5 5z" fill="#fff" fill-rule="evenodd" stroke="#fff" stroke-width="1pt"/>
		</marker>
		<marker id="marker11448" overflow="visible" orient="auto">
			<path transform="matrix(.4 0 0 .4 2.96 .4)" d="m-2.5-1c0 2.76-2.24 5-5 5s-5-2.24-5-5 2.24-5 5-5 5 2.24 5 5z" fill="#fff" fill-rule="evenodd" stroke="#fff" stroke-width="1pt"/>
		</marker>
		<marker id="marker11006" overflow="visible" orient="auto">
			<path transform="matrix(.4 0 0 .4 2.96 .4)" d="m-2.5-1c0 2.76-2.24 5-5 5s-5-2.24-5-5 2.24-5 5-5 5 2.24 5 5z" fill="#fff" fill-rule="evenodd" stroke="#fff" stroke-width="1pt"/>
		</marker>
		<marker id="marker10576" overflow="visible" orient="auto">
			<path transform="matrix(.4 0 0 .4 2.96 .4)" d="m-2.5-1c0 2.76-2.24 5-5 5s-5-2.24-5-5 2.24-5 5-5 5 2.24 5 5z" fill="#fff" fill-rule="evenodd" stroke="#fff" stroke-width="1pt"/>
		</marker>
		<marker id="marker10158" overflow="visible" orient="auto">
			<path transform="matrix(.4 0 0 .4 2.96 .4)" d="m-2.5-1c0 2.76-2.24 5-5 5s-5-2.24-5-5 2.24-5 5-5 5 2.24 5 5z" fill="#fff" fill-rule="evenodd" stroke="#fff" stroke-width="1pt"/>
		</marker>
		<marker id="marker9752" overflow="visible" orient="auto">
			<path transform="matrix(.4 0 0 .4 2.96 .4)" d="m-2.5-1c0 2.76-2.24 5-5 5s-5-2.24-5-5 2.24-5 5-5 5 2.24 5 5z" fill="#fff" fill-rule="evenodd" stroke="#fff" stroke-width="1pt"/>
		</marker>
		<marker id="marker9358" overflow="visible" orient="auto">
			<path transform="matrix(.4 0 0 .4 2.96 .4)" d="m-2.5-1c0 2.76-2.24 5-5 5s-5-2.24-5-5 2.24-5 5-5 5 2.24 5 5z" fill="#fff" fill-rule="evenodd" stroke="#fff" stroke-width="1pt"/>
		</marker>
		<marker id="marker8376" overflow="visible" orient="auto">
			<path transform="matrix(-.4 0 0 -.4 -4 0)" d="m0 0 5-5-17.5 5 17.5 5z" fill="#fff" fill-rule="evenodd" stroke="#fff" stroke-width="1pt"/>
		</marker>
		<marker id="marker8366" overflow="visible" orient="auto">
			<path transform="matrix(-.4 0 0 -.4 -4 0)" d="m0 0 5-5-17.5 5 17.5 5z" fill="#fff" fill-rule="evenodd" stroke="#fff" stroke-width="1pt"/>
		</marker>
		<marker id="marker7638" overflow="visible" orient="auto">
			<path transform="matrix(-.4 0 0 -.4 -4 0)" d="m0 0 5-5-17.5 5 17.5 5z" fill="#fff" fill-rule="evenodd" stroke="#fff" stroke-width="1pt"/>
		</marker>
		<marker id="marker7292" overflow="visible" orient="auto">
			<path transform="matrix(-.4 0 0 -.4 -4 0)" d="m0 0 5-5-17.5 5 17.5 5z" fill="#fff" fill-rule="evenodd" stroke="#fff" stroke-width="1pt"/>
		</marker>
		<marker id="marker6958" overflow="visible" orient="auto">
			<path transform="matrix(-.4 0 0 -.4 -4 0)" d="m0 0 5-5-17.5 5 17.5 5z" fill="#fff" fill-rule="evenodd" stroke="#fff" stroke-width="1pt"/>
		</marker>
		<marker id="marker6636" overflow="visible" orient="auto">
			<path transform="matrix(-.4 0 0 -.4 -4 0)" d="m0 0 5-5-17.5 5 17.5 5z" fill="#fff" fill-rule="evenodd" stroke="#fff" stroke-width="1pt"/>
		</marker>
		<marker id="marker6326" overflow="visible" orient="auto">
			<path transform="matrix(-.4 0 0 -.4 -4 0)" d="m0 0 5-5-17.5 5 17.5 5z" fill="#fff" fill-rule="evenodd" stroke="#fff" stroke-width="1pt"/>
		</marker>
		<marker id="marker6028" overflow="visible" orient="auto">
			<path transform="matrix(-.4 0 0 -.4 -4 0)" d="m0 0 5-5-17.5 5 17.5 5z" fill="#fff" fill-rule="evenodd" stroke="#fff" stroke-width="1pt"/>
		</marker>
	</defs>
	<metadata>
		<rdf:RDF>
			<cc:Work rdf:about="">
				<dc:format>image/svg+xml</dc:format>
				<dc:type rdf:resource="http://purl.org/dc/dcmitype/StillImage"/>
				<dc:title/>
			</cc:Work>
		</rdf:RDF>
	</metadata>
	<g stroke="#fff">
		<g transform="translate(.00030681)" fill="none" stroke-width=".35013">
			<path d="m50.807 12.166h25" marker-end="url(#marker18659)"/>
			<path d="m50.807 27.166h25" marker-end="url(#marker18659)"/>
		</g>
		<g transform="translate(.80764 4.6658)" fill="none" stroke-width=".35">
			<path d="m0 8.147e-7 21.213 12.728" marker-end="url(#marker6326)" marker-start="url(#marker9752)"/>
			<path d="m0 15 20.584 1e-6" marker-end="url(#marker15399)" marker-start="url(#marker15993)"/>
			<path d="m0 30 21.213-12.728" marker-end="url(#marker6958)" marker-start="url(#marker10576)"/>
			<g stroke-width=".35013">
				<path d="m0 30 20.584 2e-6" marker-end="url(#marker7292)" marker-start="url(#marker11006)"/>
				<path d="m0 15 21.213 12.728" marker-end="url(#marker6636)" marker-start="url(#marker10158)"/>
				<path d="m0 30 22.173-26.608" marker-end="url(#marker6028)" marker-start="url(#marker9358)"/>
				<path d="m0 8.147e-7 22.173 26.608" marker-end="url(#marker8376)" marker-start="url(#marker12378)"/>
				<path d="m0 8.147e-7 20.584 1e-14" marker-end="url(#marker7638)" marker-start="url(#marker11448)"/>
				<path d="m0 15 21.213-12.728" marker-end="url(#marker8366)" marker-start="url(#marker12368)"/>
			</g>
		</g>
		<g transform="translate(.80764 4.6658)" display="none" fill="none" stroke-width=".35">
			<path d="m29.416 15 20.584-1e-6" marker-end="url(#marker18145)"/>
			<g display="inline">
				<path d="m29.416 8.147e-7 20.584-2e-14" marker-end="url(#marker19185)"/>
				<path d="m29.416 30 20.584-1e-6" marker-end="url(#marker18659)"/>
			</g>
		</g>
		<g transform="translate(.00030681)" fill="none" stroke-width=".35013">
			<path d="m30.037 33.397 16.541-4.9623" marker-end="url(#marker18659)"/>
			<path d="m30.037 20.935 16.541 4.9623" marker-end="url(#marker18659)"/>
			<path d="m29.09 7.6198 18.436 16.592" marker-end="url(#marker18659)"/>
			<path d="m29.09 31.712 18.436-16.592" marker-end="url(#marker18659)"/>
			<path d="m30.037 18.397 16.541-4.9623" marker-end="url(#marker18659)"/>
			<path d="m30.037 5.9346 16.541 4.9623" marker-end="url(#marker18659)"/>
		</g>
		<g transform="translate(.80764 4.6658)" fill="#ffc600" stroke-linecap="round" stroke-linejoin="round" stroke-width=".5" style="paint-order:markers fill stroke">
			<circle cx="25" cy="8.147e-7" r="4.4158" style="paint-order:markers fill stroke"/>
			<circle cx="25" cy="15" r="4.4158" style="paint-order:markers fill stroke"/>
			<circle cx="25" cy="30" r="4.4158" style="paint-order:markers fill stroke"/>
			<circle cx="50" cy="7.5" r="4.4158" style="paint-order:markers fill stroke"/>
			<circle cx="50" cy="22.5" r="4.4158" style="paint-order:markers fill stroke"/>
		</g>
	</g>
</svg>
